<mxfile host="app.diagrams.net" agent="Mozilla/5.0 (Windows NT 10.0; Win64; x64) AppleWebKit/537.36 (KHTML, like Gecko) Chrome/136.0.0.0 Safari/537.36" version="27.0.5">
  <diagram name="Page-1" id="A5nZ0IqITTGndQLLmYTO">
    <mxGraphModel dx="1308" dy="2047" grid="1" gridSize="10" guides="1" tooltips="1" connect="1" arrows="1" fold="1" page="1" pageScale="1" pageWidth="827" pageHeight="1169" math="0" shadow="0">
      <root>
        <mxCell id="0" />
        <mxCell id="1" parent="0" />
        <mxCell id="NZRp_KM0lSio_9uiL5Sj-2" value="Actor" style="shape=umlActor;verticalLabelPosition=bottom;verticalAlign=top;html=1;outlineConnect=0;" parent="1" vertex="1">
          <mxGeometry x="1410" y="-180" width="60" height="95" as="geometry" />
        </mxCell>
        <mxCell id="NZRp_KM0lSio_9uiL5Sj-42" value="" style="endArrow=none;html=1;rounded=0;entryX=0;entryY=0.5;entryDx=0;entryDy=0;exitX=1;exitY=0.3333333333333333;exitDx=0;exitDy=0;exitPerimeter=0;" parent="1" source="NZRp_KM0lSio_9uiL5Sj-2" target="NZRp_KM0lSio_9uiL5Sj-31" edge="1">
          <mxGeometry width="50" height="50" relative="1" as="geometry">
            <mxPoint x="330" y="44" as="sourcePoint" />
            <mxPoint x="1400" y="274" as="targetPoint" />
          </mxGeometry>
        </mxCell>
        <mxCell id="NZRp_KM0lSio_9uiL5Sj-21" value="" style="endArrow=none;html=1;rounded=0;entryX=0;entryY=0.5;entryDx=0;entryDy=0;exitX=1;exitY=0.3333333333333333;exitDx=0;exitDy=0;exitPerimeter=0;" parent="1" source="NZRp_KM0lSio_9uiL5Sj-2" target="NZRp_KM0lSio_9uiL5Sj-20" edge="1">
          <mxGeometry width="50" height="50" relative="1" as="geometry">
            <mxPoint x="-410" y="24" as="sourcePoint" />
            <mxPoint x="400" y="-56" as="targetPoint" />
          </mxGeometry>
        </mxCell>
        <mxCell id="NZRp_KM0lSio_9uiL5Sj-43" value="" style="endArrow=none;html=1;rounded=0;entryX=0;entryY=0.5;entryDx=0;entryDy=0;exitX=1;exitY=0.3333333333333333;exitDx=0;exitDy=0;exitPerimeter=0;" parent="1" source="NZRp_KM0lSio_9uiL5Sj-2" target="NZRp_KM0lSio_9uiL5Sj-30" edge="1">
          <mxGeometry width="50" height="50" relative="1" as="geometry">
            <mxPoint x="60" y="124" as="sourcePoint" />
            <mxPoint x="230" y="274" as="targetPoint" />
          </mxGeometry>
        </mxCell>
        <mxCell id="NZRp_KM0lSio_9uiL5Sj-44" value="" style="endArrow=none;html=1;rounded=0;entryX=0.02;entryY=0.634;entryDx=0;entryDy=0;entryPerimeter=0;exitX=1;exitY=0.3333333333333333;exitDx=0;exitDy=0;exitPerimeter=0;" parent="1" source="NZRp_KM0lSio_9uiL5Sj-2" target="NZRp_KM0lSio_9uiL5Sj-32" edge="1">
          <mxGeometry width="50" height="50" relative="1" as="geometry">
            <mxPoint x="60" y="124" as="sourcePoint" />
            <mxPoint x="230" y="274" as="targetPoint" />
          </mxGeometry>
        </mxCell>
        <mxCell id="NZRp_KM0lSio_9uiL5Sj-41" value="" style="endArrow=none;html=1;rounded=0;exitX=1;exitY=0.3333333333333333;exitDx=0;exitDy=0;exitPerimeter=0;entryX=0;entryY=0.5;entryDx=0;entryDy=0;" parent="1" source="NZRp_KM0lSio_9uiL5Sj-2" target="NZRp_KM0lSio_9uiL5Sj-28" edge="1">
          <mxGeometry width="50" height="50" relative="1" as="geometry">
            <mxPoint x="-470" y="264" as="sourcePoint" />
            <mxPoint x="-420" y="214" as="targetPoint" />
          </mxGeometry>
        </mxCell>
        <mxCell id="NZRp_KM0lSio_9uiL5Sj-17" value="" style="endArrow=none;html=1;rounded=0;entryX=0;entryY=0.5;entryDx=0;entryDy=0;exitX=1;exitY=0.3333333333333333;exitDx=0;exitDy=0;exitPerimeter=0;" parent="1" source="NZRp_KM0lSio_9uiL5Sj-2" target="NZRp_KM0lSio_9uiL5Sj-13" edge="1">
          <mxGeometry width="50" height="50" relative="1" as="geometry">
            <mxPoint x="-120" y="-186" as="sourcePoint" />
            <mxPoint x="-70" y="-236" as="targetPoint" />
          </mxGeometry>
        </mxCell>
        <mxCell id="NZRp_KM0lSio_9uiL5Sj-1" value="" style="swimlane;startSize=0;" parent="1" vertex="1">
          <mxGeometry x="1960" y="-540" width="1060" height="1600" as="geometry" />
        </mxCell>
        <mxCell id="NZRp_KM0lSio_9uiL5Sj-3" value="&lt;font style=&quot;font-size: 48px;&quot;&gt;Future Feed&lt;/font&gt;" style="text;html=1;align=center;verticalAlign=middle;resizable=0;points=[];autosize=1;strokeColor=none;fillColor=none;" parent="NZRp_KM0lSio_9uiL5Sj-1" vertex="1">
          <mxGeometry x="380" y="20" width="280" height="70" as="geometry" />
        </mxCell>
        <mxCell id="NZRp_KM0lSio_9uiL5Sj-33" value="" style="swimlane;startSize=0;" parent="NZRp_KM0lSio_9uiL5Sj-1" vertex="1">
          <mxGeometry x="130" y="490" width="370" height="460" as="geometry" />
        </mxCell>
        <mxCell id="NZRp_KM0lSio_9uiL5Sj-26" value="&lt;span style=&quot;font-size: 18px;&quot;&gt;Profile Manaement&lt;/span&gt;" style="text;strokeColor=none;fillColor=none;align=left;verticalAlign=middle;spacingLeft=4;spacingRight=4;overflow=hidden;points=[[0,0.5],[1,0.5]];portConstraint=eastwest;rotatable=0;whiteSpace=wrap;html=1;" parent="NZRp_KM0lSio_9uiL5Sj-33" vertex="1">
          <mxGeometry x="95" y="10" width="170" height="40" as="geometry" />
        </mxCell>
        <mxCell id="NZRp_KM0lSio_9uiL5Sj-28" value="View Profile" style="ellipse;whiteSpace=wrap;html=1;" parent="NZRp_KM0lSio_9uiL5Sj-33" vertex="1">
          <mxGeometry x="70" y="70" width="200" height="80" as="geometry" />
        </mxCell>
        <mxCell id="NZRp_KM0lSio_9uiL5Sj-31" value="Edit Profile" style="ellipse;whiteSpace=wrap;html=1;" parent="NZRp_KM0lSio_9uiL5Sj-33" vertex="1">
          <mxGeometry x="70" y="170" width="200" height="80" as="geometry" />
        </mxCell>
        <mxCell id="NZRp_KM0lSio_9uiL5Sj-30" value="Follow / Unfollow User" style="ellipse;whiteSpace=wrap;html=1;" parent="NZRp_KM0lSio_9uiL5Sj-33" vertex="1">
          <mxGeometry x="70" y="260" width="200" height="80" as="geometry" />
        </mxCell>
        <mxCell id="NZRp_KM0lSio_9uiL5Sj-32" value="List Followers / List Following" style="ellipse;whiteSpace=wrap;html=1;" parent="NZRp_KM0lSio_9uiL5Sj-33" vertex="1">
          <mxGeometry x="70" y="360" width="200" height="80" as="geometry" />
        </mxCell>
        <mxCell id="NZRp_KM0lSio_9uiL5Sj-9" value="" style="swimlane;startSize=0;" parent="NZRp_KM0lSio_9uiL5Sj-1" vertex="1">
          <mxGeometry x="130" y="145" width="360" height="280" as="geometry" />
        </mxCell>
        <mxCell id="NZRp_KM0lSio_9uiL5Sj-13" value="Login" style="ellipse;whiteSpace=wrap;html=1;" parent="NZRp_KM0lSio_9uiL5Sj-9" vertex="1">
          <mxGeometry x="30" y="100" width="120" height="60" as="geometry" />
        </mxCell>
        <mxCell id="NZRp_KM0lSio_9uiL5Sj-12" value="&lt;span style=&quot;font-size: 18px;&quot;&gt;User Management&lt;/span&gt;" style="text;strokeColor=none;fillColor=none;align=left;verticalAlign=middle;spacingLeft=4;spacingRight=4;overflow=hidden;points=[[0,0.5],[1,0.5]];portConstraint=eastwest;rotatable=0;whiteSpace=wrap;html=1;" parent="NZRp_KM0lSio_9uiL5Sj-9" vertex="1">
          <mxGeometry x="90" y="10" width="170" height="40" as="geometry" />
        </mxCell>
        <mxCell id="NZRp_KM0lSio_9uiL5Sj-14" value="User Authentication&amp;nbsp;&lt;div&gt;&amp;amp; User&amp;nbsp; Authorization&lt;/div&gt;" style="ellipse;whiteSpace=wrap;html=1;" parent="NZRp_KM0lSio_9uiL5Sj-9" vertex="1">
          <mxGeometry x="207" y="60" width="120" height="60" as="geometry" />
        </mxCell>
        <mxCell id="NZRp_KM0lSio_9uiL5Sj-20" value="" style="ellipse;whiteSpace=wrap;html=1;" parent="NZRp_KM0lSio_9uiL5Sj-9" vertex="1">
          <mxGeometry x="110" y="170" width="120" height="70" as="geometry" />
        </mxCell>
        <mxCell id="NZRp_KM0lSio_9uiL5Sj-22" value="Register" style="text;html=1;align=center;verticalAlign=middle;whiteSpace=wrap;rounded=0;" parent="NZRp_KM0lSio_9uiL5Sj-9" vertex="1">
          <mxGeometry x="145" y="190" width="60" height="30" as="geometry" />
        </mxCell>
        <mxCell id="NZRp_KM0lSio_9uiL5Sj-72" value="" style="endArrow=open;endFill=1;endSize=12;html=1;rounded=0;exitX=1;exitY=0.5;exitDx=0;exitDy=0;entryX=0;entryY=0.5;entryDx=0;entryDy=0;" parent="NZRp_KM0lSio_9uiL5Sj-9" source="NZRp_KM0lSio_9uiL5Sj-13" target="NZRp_KM0lSio_9uiL5Sj-14" edge="1">
          <mxGeometry width="160" relative="1" as="geometry">
            <mxPoint x="80" y="195" as="sourcePoint" />
            <mxPoint x="240" y="195" as="targetPoint" />
          </mxGeometry>
        </mxCell>
        <mxCell id="NZRp_KM0lSio_9uiL5Sj-73" value="&lt;font style=&quot;font-size: 9px;&quot;&gt;&amp;lt;&amp;lt;include&amp;gt;&amp;gt;&lt;/font&gt;" style="text;align=center;fontStyle=1;verticalAlign=middle;spacingLeft=3;spacingRight=3;strokeColor=none;rotatable=0;points=[[0,0.5],[1,0.5]];portConstraint=eastwest;html=1;" parent="NZRp_KM0lSio_9uiL5Sj-9" vertex="1">
          <mxGeometry x="135" y="94" width="45" height="16" as="geometry" />
        </mxCell>
        <mxCell id="NZRp_KM0lSio_9uiL5Sj-79" value="" style="swimlane;startSize=0;" parent="NZRp_KM0lSio_9uiL5Sj-1" vertex="1">
          <mxGeometry x="600" y="140" width="280" height="280" as="geometry" />
        </mxCell>
        <mxCell id="NZRp_KM0lSio_9uiL5Sj-80" value="Reshare Posts" style="ellipse;whiteSpace=wrap;html=1;" parent="NZRp_KM0lSio_9uiL5Sj-79" vertex="1">
          <mxGeometry x="70" y="35" width="140" height="70" as="geometry" />
        </mxCell>
        <mxCell id="NZRp_KM0lSio_9uiL5Sj-81" value="&lt;span style=&quot;font-size: 18px;&quot;&gt;Social Interactions&lt;/span&gt;" style="text;strokeColor=none;fillColor=none;align=left;verticalAlign=middle;spacingLeft=4;spacingRight=4;overflow=hidden;points=[[0,0.5],[1,0.5]];portConstraint=eastwest;rotatable=0;whiteSpace=wrap;html=1;" parent="NZRp_KM0lSio_9uiL5Sj-79" vertex="1">
          <mxGeometry x="70" y="-5" width="170" height="40" as="geometry" />
        </mxCell>
        <mxCell id="NZRp_KM0lSio_9uiL5Sj-82" value="Comment on Posts&lt;span style=&quot;color: rgba(0, 0, 0, 0); font-family: monospace; font-size: 0px; text-align: start; text-wrap-mode: nowrap;&quot;&gt;%3CmxGraphModel%3E%3Croot%3E%3CmxCell%20id%3D%220%22%2F%3E%3CmxCell%20id%3D%221%22%20parent%3D%220%22%2F%3E%3CmxCell%20id%3D%222%22%20value%3D%22Reshare%20Posts%22%20style%3D%22ellipse%3BwhiteSpace%3Dwrap%3Bhtml%3D1%3B%22%20vertex%3D%221%22%20parent%3D%221%22%3E%3CmxGeometry%20x%3D%222630%22%20y%3D%22-365%22%20width%3D%22140%22%20height%3D%2270%22%20as%3D%22geometry%22%2F%3E%3C%2FmxCell%3E%3C%2Froot%3E%3C%2FmxGraphModel%3E&lt;/span&gt;&lt;span style=&quot;color: rgba(0, 0, 0, 0); font-family: monospace; font-size: 0px; text-align: start; text-wrap-mode: nowrap;&quot;&gt;%3CmxGraphModel%3E%3Croot%3E%3CmxCell%20id%3D%220%22%2F%3E%3CmxCell%20id%3D%221%22%20parent%3D%220%22%2F%3E%3CmxCell%20id%3D%222%22%20value%3D%22Reshare%20Posts%22%20style%3D%22ellipse%3BwhiteSpace%3Dwrap%3Bhtml%3D1%3B%22%20vertex%3D%221%22%20parent%3D%221%22%3E%3CmxGeometry%20x%3D%222630%22%20y%3D%22-365%22%20width%3D%22140%22%20height%3D%2270%22%20as%3D%22geometry%22%2F%3E%3C%2FmxCell%3E%3C%2Froot%3E%3C%2FmxGraphModel%3E&lt;/span&gt;" style="ellipse;whiteSpace=wrap;html=1;" parent="NZRp_KM0lSio_9uiL5Sj-79" vertex="1">
          <mxGeometry x="70" y="120" width="140" height="70" as="geometry" />
        </mxCell>
        <mxCell id="NZRp_KM0lSio_9uiL5Sj-83" value="Bookmark Posts" style="ellipse;whiteSpace=wrap;html=1;" parent="NZRp_KM0lSio_9uiL5Sj-79" vertex="1">
          <mxGeometry x="70" y="200" width="140" height="70" as="geometry" />
        </mxCell>
        <mxCell id="NZRp_KM0lSio_9uiL5Sj-48" value="" style="swimlane;startSize=0;" parent="NZRp_KM0lSio_9uiL5Sj-1" vertex="1">
          <mxGeometry x="120" y="1000" width="410" height="560" as="geometry" />
        </mxCell>
        <mxCell id="NZRp_KM0lSio_9uiL5Sj-53" value="Create text/Image Post" style="ellipse;whiteSpace=wrap;html=1;" parent="NZRp_KM0lSio_9uiL5Sj-48" vertex="1">
          <mxGeometry x="20" y="70" width="190" height="100" as="geometry" />
        </mxCell>
        <mxCell id="NZRp_KM0lSio_9uiL5Sj-52" value="&lt;span style=&quot;font-size: 18px;&quot;&gt;Post Management&lt;/span&gt;" style="text;strokeColor=none;fillColor=none;align=left;verticalAlign=middle;spacingLeft=4;spacingRight=4;overflow=hidden;points=[[0,0.5],[1,0.5]];portConstraint=eastwest;rotatable=0;whiteSpace=wrap;html=1;" parent="NZRp_KM0lSio_9uiL5Sj-48" vertex="1">
          <mxGeometry x="110" y="10" width="190" height="40" as="geometry" />
        </mxCell>
        <mxCell id="NZRp_KM0lSio_9uiL5Sj-54" value="System Automatic&lt;div&gt;Topic Tagger&lt;/div&gt;" style="ellipse;whiteSpace=wrap;html=1;" parent="NZRp_KM0lSio_9uiL5Sj-48" vertex="1">
          <mxGeometry x="190" y="160" width="180" height="80" as="geometry" />
        </mxCell>
        <mxCell id="NZRp_KM0lSio_9uiL5Sj-59" value="Edit Post" style="ellipse;whiteSpace=wrap;html=1;" parent="NZRp_KM0lSio_9uiL5Sj-48" vertex="1">
          <mxGeometry x="20" y="220" width="190" height="100" as="geometry" />
        </mxCell>
        <mxCell id="NZRp_KM0lSio_9uiL5Sj-60" value="Delete Post" style="ellipse;whiteSpace=wrap;html=1;" parent="NZRp_KM0lSio_9uiL5Sj-48" vertex="1">
          <mxGeometry x="20" y="340" width="190" height="100" as="geometry" />
        </mxCell>
        <mxCell id="NZRp_KM0lSio_9uiL5Sj-62" value="View Tagged Topics" style="ellipse;whiteSpace=wrap;html=1;" parent="NZRp_KM0lSio_9uiL5Sj-48" vertex="1">
          <mxGeometry x="20" y="450" width="190" height="100" as="geometry" />
        </mxCell>
        <mxCell id="NZRp_KM0lSio_9uiL5Sj-74" value="&lt;font style=&quot;font-size: 9px;&quot;&gt;&amp;lt;&amp;lt;include&amp;gt;&amp;gt;&lt;/font&gt;" style="text;align=center;fontStyle=1;verticalAlign=middle;spacingLeft=3;spacingRight=3;strokeColor=none;rotatable=0;points=[[0,0.5],[1,0.5]];portConstraint=eastwest;html=1;" parent="NZRp_KM0lSio_9uiL5Sj-48" vertex="1">
          <mxGeometry x="250" y="120" width="45" height="16" as="geometry" />
        </mxCell>
        <mxCell id="NZRp_KM0lSio_9uiL5Sj-75" value="" style="endArrow=open;endFill=1;endSize=12;html=1;rounded=0;entryX=0.5;entryY=0;entryDx=0;entryDy=0;exitX=1;exitY=0.5;exitDx=0;exitDy=0;" parent="NZRp_KM0lSio_9uiL5Sj-48" source="NZRp_KM0lSio_9uiL5Sj-53" target="NZRp_KM0lSio_9uiL5Sj-54" edge="1">
          <mxGeometry width="160" relative="1" as="geometry">
            <mxPoint x="130" y="-80" as="sourcePoint" />
            <mxPoint x="290" y="-80" as="targetPoint" />
            <Array as="points" />
          </mxGeometry>
        </mxCell>
        <mxCell id="NZRp_KM0lSio_9uiL5Sj-76" value="" style="endArrow=open;endFill=1;endSize=12;html=1;rounded=0;entryX=0.5;entryY=1;entryDx=0;entryDy=0;exitX=1;exitY=0.5;exitDx=0;exitDy=0;" parent="NZRp_KM0lSio_9uiL5Sj-48" source="NZRp_KM0lSio_9uiL5Sj-59" target="NZRp_KM0lSio_9uiL5Sj-54" edge="1">
          <mxGeometry width="160" relative="1" as="geometry">
            <mxPoint x="220" y="130" as="sourcePoint" />
            <mxPoint x="290" y="170" as="targetPoint" />
            <Array as="points" />
          </mxGeometry>
        </mxCell>
        <mxCell id="NZRp_KM0lSio_9uiL5Sj-78" value="&lt;font style=&quot;font-size: 9px;&quot;&gt;&amp;lt;&amp;lt;include&amp;gt;&amp;gt;&lt;/font&gt;" style="text;align=center;fontStyle=1;verticalAlign=middle;spacingLeft=3;spacingRight=3;strokeColor=none;rotatable=0;points=[[0,0.5],[1,0.5]];portConstraint=eastwest;html=1;" parent="NZRp_KM0lSio_9uiL5Sj-48" vertex="1">
          <mxGeometry x="250" y="255" width="45" height="16" as="geometry" />
        </mxCell>
        <mxCell id="NZRp_KM0lSio_9uiL5Sj-84" value="" style="swimlane;startSize=0;" parent="NZRp_KM0lSio_9uiL5Sj-1" vertex="1">
          <mxGeometry x="600" y="850" width="280" height="250" as="geometry" />
        </mxCell>
        <mxCell id="NZRp_KM0lSio_9uiL5Sj-85" value="Create Bot" style="ellipse;whiteSpace=wrap;html=1;" parent="NZRp_KM0lSio_9uiL5Sj-84" vertex="1">
          <mxGeometry x="70" y="35" width="140" height="70" as="geometry" />
        </mxCell>
        <mxCell id="NZRp_KM0lSio_9uiL5Sj-86" value="&lt;span style=&quot;font-size: 18px;&quot;&gt;Bot Creation&lt;/span&gt;" style="text;strokeColor=none;fillColor=none;align=left;verticalAlign=middle;spacingLeft=4;spacingRight=4;overflow=hidden;points=[[0,0.5],[1,0.5]];portConstraint=eastwest;rotatable=0;whiteSpace=wrap;html=1;" parent="NZRp_KM0lSio_9uiL5Sj-84" vertex="1">
          <mxGeometry x="80" y="10" width="140" height="25" as="geometry" />
        </mxCell>
        <mxCell id="NZRp_KM0lSio_9uiL5Sj-87" value="Manage Bot" style="ellipse;whiteSpace=wrap;html=1;" parent="NZRp_KM0lSio_9uiL5Sj-84" vertex="1">
          <mxGeometry x="70" y="120" width="140" height="70" as="geometry" />
        </mxCell>
        <mxCell id="NZRp_KM0lSio_9uiL5Sj-65" value="Actor" style="shape=umlActor;verticalLabelPosition=bottom;verticalAlign=top;html=1;outlineConnect=0;" parent="1" vertex="1">
          <mxGeometry x="1410" y="490" width="60" height="95" as="geometry" />
        </mxCell>
        <mxCell id="NZRp_KM0lSio_9uiL5Sj-66" value="" style="endArrow=none;html=1;rounded=0;exitX=1;exitY=0.3333333333333333;exitDx=0;exitDy=0;exitPerimeter=0;entryX=0;entryY=0.5;entryDx=0;entryDy=0;" parent="1" source="NZRp_KM0lSio_9uiL5Sj-65" target="NZRp_KM0lSio_9uiL5Sj-53" edge="1">
          <mxGeometry width="50" height="50" relative="1" as="geometry">
            <mxPoint x="1810" y="290" as="sourcePoint" />
            <mxPoint x="1860" y="240" as="targetPoint" />
          </mxGeometry>
        </mxCell>
        <mxCell id="NZRp_KM0lSio_9uiL5Sj-67" value="" style="endArrow=none;html=1;rounded=0;exitX=0;exitY=0.5;exitDx=0;exitDy=0;entryX=1;entryY=0.3333333333333333;entryDx=0;entryDy=0;entryPerimeter=0;" parent="1" source="NZRp_KM0lSio_9uiL5Sj-59" target="NZRp_KM0lSio_9uiL5Sj-65" edge="1">
          <mxGeometry width="50" height="50" relative="1" as="geometry">
            <mxPoint x="1810" y="290" as="sourcePoint" />
            <mxPoint x="1860" y="240" as="targetPoint" />
          </mxGeometry>
        </mxCell>
        <mxCell id="NZRp_KM0lSio_9uiL5Sj-68" value="" style="endArrow=none;html=1;rounded=0;exitX=1;exitY=0.3333333333333333;exitDx=0;exitDy=0;exitPerimeter=0;entryX=0;entryY=0.5;entryDx=0;entryDy=0;" parent="1" source="NZRp_KM0lSio_9uiL5Sj-65" target="NZRp_KM0lSio_9uiL5Sj-60" edge="1">
          <mxGeometry width="50" height="50" relative="1" as="geometry">
            <mxPoint x="1810" y="290" as="sourcePoint" />
            <mxPoint x="1860" y="240" as="targetPoint" />
          </mxGeometry>
        </mxCell>
        <mxCell id="NZRp_KM0lSio_9uiL5Sj-69" value="" style="endArrow=none;html=1;rounded=0;entryX=0;entryY=0.5;entryDx=0;entryDy=0;" parent="1" target="NZRp_KM0lSio_9uiL5Sj-62" edge="1">
          <mxGeometry width="50" height="50" relative="1" as="geometry">
            <mxPoint x="1470" y="520" as="sourcePoint" />
            <mxPoint x="1860" y="240" as="targetPoint" />
          </mxGeometry>
        </mxCell>
        <mxCell id="NZRp_KM0lSio_9uiL5Sj-89" value="" style="swimlane;startSize=0;" parent="1" vertex="1">
          <mxGeometry x="2570" y="-30" width="280" height="210" as="geometry" />
        </mxCell>
        <mxCell id="NZRp_KM0lSio_9uiL5Sj-90" value="Create Preset" style="ellipse;whiteSpace=wrap;html=1;" parent="NZRp_KM0lSio_9uiL5Sj-89" vertex="1">
          <mxGeometry x="70" y="35" width="140" height="70" as="geometry" />
        </mxCell>
        <mxCell id="NZRp_KM0lSio_9uiL5Sj-91" value="&lt;span style=&quot;font-size: 18px;&quot;&gt;Feed Preset Creation&lt;/span&gt;" style="text;strokeColor=none;fillColor=none;align=left;verticalAlign=middle;spacingLeft=4;spacingRight=4;overflow=hidden;points=[[0,0.5],[1,0.5]];portConstraint=eastwest;rotatable=0;whiteSpace=wrap;html=1;" parent="NZRp_KM0lSio_9uiL5Sj-89" vertex="1">
          <mxGeometry x="50" y="-5" width="190" height="40" as="geometry" />
        </mxCell>
        <mxCell id="NZRp_KM0lSio_9uiL5Sj-92" value="Manage Presets" style="ellipse;whiteSpace=wrap;html=1;" parent="NZRp_KM0lSio_9uiL5Sj-89" vertex="1">
          <mxGeometry x="70" y="120" width="140" height="70" as="geometry" />
        </mxCell>
        <mxCell id="NZRp_KM0lSio_9uiL5Sj-94" value="Actor" style="shape=umlActor;verticalLabelPosition=bottom;verticalAlign=top;html=1;outlineConnect=0;" parent="1" vertex="1">
          <mxGeometry x="3290" y="-250" width="60" height="95" as="geometry" />
        </mxCell>
        <mxCell id="NZRp_KM0lSio_9uiL5Sj-96" value="" style="endArrow=none;html=1;rounded=0;exitX=1;exitY=0.5;exitDx=0;exitDy=0;entryX=0;entryY=0.3333333333333333;entryDx=0;entryDy=0;entryPerimeter=0;" parent="1" source="NZRp_KM0lSio_9uiL5Sj-85" target="NZRp_KM0lSio_9uiL5Sj-94" edge="1">
          <mxGeometry width="50" height="50" relative="1" as="geometry">
            <mxPoint x="3030" y="260" as="sourcePoint" />
            <mxPoint x="3080" y="210" as="targetPoint" />
          </mxGeometry>
        </mxCell>
        <mxCell id="NZRp_KM0lSio_9uiL5Sj-97" value="" style="endArrow=none;html=1;rounded=0;exitX=1;exitY=0.5;exitDx=0;exitDy=0;entryX=0;entryY=0.3333333333333333;entryDx=0;entryDy=0;entryPerimeter=0;" parent="1" source="NZRp_KM0lSio_9uiL5Sj-87" target="NZRp_KM0lSio_9uiL5Sj-94" edge="1">
          <mxGeometry width="50" height="50" relative="1" as="geometry">
            <mxPoint x="3030" y="260" as="sourcePoint" />
            <mxPoint x="3080" y="210" as="targetPoint" />
          </mxGeometry>
        </mxCell>
        <mxCell id="NZRp_KM0lSio_9uiL5Sj-98" value="" style="endArrow=none;html=1;rounded=0;entryX=1;entryY=0.5;entryDx=0;entryDy=0;exitX=0;exitY=0.3333333333333333;exitDx=0;exitDy=0;exitPerimeter=0;" parent="1" source="NZRp_KM0lSio_9uiL5Sj-94" target="NZRp_KM0lSio_9uiL5Sj-92" edge="1">
          <mxGeometry width="50" height="50" relative="1" as="geometry">
            <mxPoint x="3030" y="260" as="sourcePoint" />
            <mxPoint x="3080" y="210" as="targetPoint" />
          </mxGeometry>
        </mxCell>
        <mxCell id="NZRp_KM0lSio_9uiL5Sj-99" value="" style="endArrow=none;html=1;rounded=0;exitX=1;exitY=0.5;exitDx=0;exitDy=0;entryX=0;entryY=0.3333333333333333;entryDx=0;entryDy=0;entryPerimeter=0;" parent="1" source="NZRp_KM0lSio_9uiL5Sj-90" target="NZRp_KM0lSio_9uiL5Sj-94" edge="1">
          <mxGeometry width="50" height="50" relative="1" as="geometry">
            <mxPoint x="2780" y="130" as="sourcePoint" />
            <mxPoint x="3273.5557725694443" y="-230" as="targetPoint" />
          </mxGeometry>
        </mxCell>
        <mxCell id="NZRp_KM0lSio_9uiL5Sj-100" value="" style="endArrow=none;html=1;rounded=0;entryX=1;entryY=0.5;entryDx=0;entryDy=0;" parent="1" target="NZRp_KM0lSio_9uiL5Sj-83" edge="1">
          <mxGeometry width="50" height="50" relative="1" as="geometry">
            <mxPoint x="3291.777886284722" y="-210" as="sourcePoint" />
            <mxPoint x="2890" y="80" as="targetPoint" />
          </mxGeometry>
        </mxCell>
        <mxCell id="NZRp_KM0lSio_9uiL5Sj-101" value="" style="endArrow=none;html=1;rounded=0;entryX=1;entryY=0.5;entryDx=0;entryDy=0;exitX=0;exitY=0.3333333333333333;exitDx=0;exitDy=0;exitPerimeter=0;" parent="1" source="NZRp_KM0lSio_9uiL5Sj-94" target="NZRp_KM0lSio_9uiL5Sj-82" edge="1">
          <mxGeometry width="50" height="50" relative="1" as="geometry">
            <mxPoint x="3020" y="130" as="sourcePoint" />
            <mxPoint x="3070" y="80" as="targetPoint" />
          </mxGeometry>
        </mxCell>
        <mxCell id="NZRp_KM0lSio_9uiL5Sj-102" value="" style="endArrow=none;html=1;rounded=0;entryX=1;entryY=0.5;entryDx=0;entryDy=0;exitX=0;exitY=0.3333333333333333;exitDx=0;exitDy=0;exitPerimeter=0;" parent="1" source="NZRp_KM0lSio_9uiL5Sj-94" target="NZRp_KM0lSio_9uiL5Sj-80" edge="1">
          <mxGeometry width="50" height="50" relative="1" as="geometry">
            <mxPoint x="3040" y="130" as="sourcePoint" />
            <mxPoint x="3090" y="80" as="targetPoint" />
          </mxGeometry>
        </mxCell>
      </root>
    </mxGraphModel>
  </diagram>
</mxfile>
